<svg xmlns="http://www.w3.org/2000/svg" width="152" height="40" fill="none"><path fill="#fff" fill-rule="evenodd" d="M50.691 8.637h5.322l5.595 12.618h-3l-4.384-9.884h-.79v9.884h-2.743V8.637Z" clip-rule="evenodd"/><path fill="#fff" d="M106.646 8.637h-2.744v12.618h2.744V8.637Z"/><path fill="#fff" fill-rule="evenodd" d="M103.902 21.255h-2.999l-4.382-9.884h-1.804v9.884h-2.744V8.637h6.337l5.592 12.618ZM67.2 8.637l-5.592 12.618h2.997l4.384-9.884h.79v9.884h2.743V8.637H67.2Z" clip-rule="evenodd"/><path fill="#fff" d="M84.793 8.637h-5.02l-5.595 12.618h3L79 17.145h6.563l1.822 4.11h3L84.79 8.637h.003Zm-4.58 5.774 1.346-3.037h1.445l1.346 3.037h-4.137Z"/><path fill="#fff" fill-rule="evenodd" d="M108.171 11.371V8.637h15.55v2.734h-6.405v9.884h-2.743v-9.884h-6.402ZM127.987 8.637h-2.744v12.618h11.942v-2.734h-9.198V8.637ZM151.667 8.637v2.734h-10.214v2.025h8.854v2.735h-8.854v2.39h10.214v2.734H138.71V8.637h12.957Z" clip-rule="evenodd"/><path fill="#fff" d="M50.49 31.428v-8.07h1.92l2.811 5.223V23.36h1.794v8.069h-1.92l-2.81-5.223v5.223H50.49ZM58.588 23.359h4.952v1.5h-3.078v1.832h3.078v1.465h-3.078v1.775h3.078v1.5h-4.952v-8.072ZM66.432 31.428v-6.41H64.21v-1.66h6.316v1.66h-2.234v6.41h-1.861ZM73.864 31.428l-2.857-8.07h1.967l1.688 5.361 1.608-5.36h1.458l1.608 5.36 1.688-5.36h1.967l-2.856 8.069h-1.528L77 26.356l-1.608 5.072h-1.527ZM90.091 30.419c-.786.826-1.836 1.24-3.148 1.24-1.311 0-2.359-.414-3.145-1.24-.787-.826-1.181-1.835-1.181-3.027 0-1.192.394-2.2 1.18-3.027.787-.826 1.837-1.239 3.146-1.239 1.31 0 2.36.413 3.148 1.24.787.825 1.181 1.834 1.181 3.026 0 1.192-.394 2.2-1.18 3.027Zm-3.148-.433c.742 0 1.322-.248 1.742-.744.42-.495.63-1.111.63-1.85 0-.738-.21-1.354-.63-1.85-.42-.496-1-.744-1.742-.744-.74 0-1.331.248-1.753.744-.42.496-.626 1.111-.618 1.85-.008.739.198 1.355.618 1.85.42.496 1.005.744 1.753.744ZM98.71 26.273a3.03 3.03 0 0 1-.405 1.562c-.272.458-.641.801-1.11 1.032l1.421 2.558h-2.128l-1.274-2.235h-.982v2.235h-1.874v-8.069h3.447c.841 0 1.535.276 2.083.824.547.55.821 1.247.821 2.093Zm-4.478 1.395h1.284c.377 0 .688-.13.932-.394.244-.26.364-.595.364-1.004 0-.408-.12-.74-.364-1.003a1.22 1.22 0 0 0-.932-.393h-1.284v2.794ZM106.646 23.356l-3.181 4.001 3.181 4.07h-2.234l-2.66-3.562v3.563h-1.874v-8.07h1.874v3.586l2.673-3.585h2.221v-.003Z"/><path fill="#fff" fill-rule="evenodd" d="m22.142 6.855 1.03-6.617A20.357 20.357 0 0 0 20.07 0h-.016v13.502h.016c.57 0 1.135.072 1.68.218l1.752-6.58a13.132 13.132 0 0 0-1.362-.283l.002-.002ZM16.803 14.373l-3.371-5.788c-.397.23-.784.48-1.156.748L8.248 3.836A20.114 20.114 0 0 1 10.93 2.19l3.065 5.96a13.246 13.246 0 0 1 1.932-.8L13.84.984C14.834.66 15.866.414 16.9.248l1.073 6.722c-.455.073-.904.17-1.35.288l1.745 6.464a6.501 6.501 0 0 0-1.568.651h.002ZM8.26 14.025l-6.087-3.087A19.66 19.66 0 0 0 .97 13.842l6.5 2.093c.213-.653.48-1.296.79-1.91ZM31.524 13.38l-5.806 3.362c.286.49.505 1.016.653 1.562l6.484-1.743c.12.443.219.892.29 1.345l6.745-1.072a20.189 20.189 0 0 0-.739-3.054l-6.389 2.08a13.01 13.01 0 0 0-.804-1.922l5.98-3.057a20.146 20.146 0 0 0-1.65-2.67l-5.515 4.017c.27.37.52.756.753 1.151h-.002ZM29.154 2.163a20.484 20.484 0 0 0-2.914-1.2l-2.098 6.478c.656.21 1.302.475 1.917.788l3.095-6.068v.002ZM26.73 8.465l-3.41 5.898c.495.283.95.631 1.355 1.034l9.565-9.564A20.357 20.357 0 0 0 31.845 3.8l-3.944 5.42a14.3 14.3 0 0 0-1.168-.755h-.003ZM14.416 16.76 8.5 13.356c.23-.4.487-.789.758-1.164L3.821 8.259a20.105 20.105 0 0 1 2.043-2.386l9.593 9.534a6.51 6.51 0 0 0-1.038 1.35l-.003.002ZM7.166 16.574l6.6 1.75A6.471 6.471 0 0 0 13.547 20H0c0-1.039.08-2.083.241-3.102l6.64 1.032c.073-.458.166-.909.287-1.357h-.002ZM31.88 25.975l6.088 3.087a19.93 19.93 0 0 0 1.204-2.904l-6.5-2.093c-.214.653-.48 1.296-.791 1.91ZM23.338 25.627l3.372 5.788c.397-.23.784-.48 1.156-.748l4.027 5.497a20.106 20.106 0 0 1-2.68 1.645l-3.066-5.96c-.623.317-1.266.585-1.932.8l2.085 6.367c-.995.323-2.027.57-3.062.736l-1.073-6.722c.455-.073.904-.17 1.349-.288l-1.744-6.464a6.503 6.503 0 0 0 1.568-.651ZM8.618 26.62l5.806-3.362a6.452 6.452 0 0 1-.653-1.562L7.286 23.44c-.12-.443-.218-.892-.289-1.345L.251 23.166A20.19 20.19 0 0 0 .99 26.22l6.39-2.08c.215.66.484 1.304.803 1.922l-5.98 3.057a19.995 19.995 0 0 0 1.651 2.67l5.515-4.017c-.271-.37-.52-.756-.754-1.151h.003ZM10.987 37.84c.937.473 1.917.876 2.914 1.199L16 32.562a13.016 13.016 0 0 1-1.917-.789l-3.095 6.066ZM13.412 31.535l3.409-5.896a6.467 6.467 0 0 1-1.354-1.034L5.902 34.17c.74.736 1.547 1.42 2.394 2.033l3.945-5.42c.377.27.766.523 1.168.756l.002-.003ZM25.725 23.24l5.917 3.403c-.231.4-.488.789-.759 1.165l5.437 3.933a20.102 20.102 0 0 1-2.043 2.386l-9.592-9.534a6.511 6.511 0 0 0 1.038-1.35l.002-.002ZM18.391 26.283l-1.751 6.58c.447.117.902.212 1.362.282l-1.033 6.617c1.02.158 2.063.238 3.103.238h.015V26.498h-.015c-.57 0-1.136-.073-1.68-.218v.003ZM26.376 21.676A6.471 6.471 0 0 0 26.594 20h13.55c0 1.039-.08 2.083-.241 3.102l-6.64-1.032c-.073.458-.166.909-.287 1.357l-6.6-1.75Z" clip-rule="evenodd"/></svg>